<svg xmlns="http://www.w3.org/2000/svg" viewBox="0 0 129.64583 679.97919" height="2570" width="490"><g><g fill="rgba(255, 255, 255, 0.6)"><path d="M23.824 8.094c-3.177 2.198-4.163 5.891-4.163 12.749 0 6.858.986 10.551 4.163 12.749 3.177 2.198 18.47-3.693 18.47-12.749 0-9.056-15.293-14.924-18.47-12.749z"/><path d="M16.878 29.527l-13.497 5.583c-1.315.527-.723 2.704.592 2.198l13.497-5.583c1.315-.527.745-2.704-.592-2.198z"/><path d="M16.878 23.262l-13.497 5.562c-1.315.55-.723 2.704.592 2.198l13.497-5.562c1.315-.55.745-2.704-.592-2.198z"/><path d="M16.878 16.975l-13.497 5.583c-1.315.527-.723 2.704.592 2.198l13.497-5.583c1.315-.527.745-2.704-.592-2.198z"/><path d="M16.878 10.645l-13.497 5.583c-1.315.527-.723 2.704.592 2.198l13.583-5.583c1.315-.527.745-2.704-.592-2.198z"/></g><g fill="#fb9900"><path d="M108.49 8.094c-3.177 2.198-4.163 5.891-4.163 12.749 0 6.858.986 10.551 4.163 12.749 3.177 2.198 18.47-3.693 18.47-12.749 0-9.056-15.293-14.924-18.47-12.749z"/><path d="M101.544 29.527l-13.497 5.583c-1.315.527-.723 2.704.592 2.198l13.497-5.583c1.315-.527.745-2.704-.592-2.198z"/><path d="M101.544 23.262l-13.497 5.562c-1.315.55-.723 2.704.592 2.198l13.497-5.562c1.315-.55.745-2.704-.592-2.198z"/><path d="M101.544 16.975l-13.497 5.583c-1.315.527-.723 2.704.592 2.198l13.497-5.583c1.315-.527.745-2.704-.592-2.198z"/><path d="M101.544 10.645l-13.497 5.583c-1.315.527-.723 2.704.592 2.198l13.583-5.583c1.315-.527.745-2.704-.592-2.198z"/></g><g transform="matrix(.308 0 0 .308 83.609 .601)"><path transform="translate(-60.721 -44.232)" d="M184 211.005l-.9-.845-5.633 5.633.845.845a50.7 50.7 0 0 1 0 72.442l-.845.845 5.633 5.633.9-.9a58.754 58.754 0 0 0 0-83.934z" fill="#ed1c24"/><path transform="translate(-146.854 -44.139)" d="M183.049 215.813l-5.633-5.633-.9.845a58.754 58.754 0 0 0 0 83.934l.9.9 5.633-5.633-.9-.845a50.7 50.7 0 0 1 0-72.442z" fill="#ed1c24"/><path d="M69.036 182.771h15.435v11.83l-2.986 23.772h-9.52l-2.929-23.772zm.507 39.432h14.421v12.731h-14.928z" fill="#ed1c24"/><circle cx="76.03" cy="208.563" r="42.285" stroke="#ed1c24" stroke-width="9.022" stroke-linejoin="round" fill="none"/></g><g transform="translate(0 382.979)"><path d="M36.903-331.024l-.277-.26-1.735 1.735.26.26a15.612 15.612 0 0 1 0 22.307l-.26.26 1.735 1.735.277-.277a18.092 18.092 0 0 0 0-25.846z" fill="rgba(255, 255, 255, 0.6)"/><path d="M10.088-329.515l-1.735-1.735-.277.26a18.092 18.092 0 0 0 0 25.846l.277.277 1.735-1.735-.277-.26a15.612 15.612 0 0 1 0-22.307z" fill="rgba(255, 255, 255, 0.6)"/><path d="M20.2-326.098h4.753v3.643l-.919 7.32h-2.931l-.902-7.32zm.156 12.142h4.441v3.92h-4.597z" fill="rgba(255, 255, 255, 0.6)"/><ellipse cx="22.354" cy="-318.156" rx="13.021" ry="13.021" stroke="rgba(255, 255, 255, 0.6)" stroke-width="2.778" stroke-linejoin="round" fill="none"/></g><g fill="rgba(255, 255, 255, 0.6)"><path d="M360.785 231.561h-8.606s-4.749-17.361-6.455-17.361h-53.641c-1.632 0-6.38 17.361-6.38 17.361h-8.603s-3.264 1.261-1.929 4.155c1.335 2.894 5.416 2.374 8.161 2.448l-.371 1.039-5.564 3.339v33.386h16.916v-5.119h49.263v5.119h16.916v-33.535l-5.565-3.339-.371-1.039c2.745 0 7.419-.445 8.161-2.448zm-41.844 5.787h-31.606a166.78 166.78 0 0 1 6.6-19.438h50.005a166.848 166.848 0 0 1 6.6 19.438z" transform="matrix(.324 0 0 .324 -83.133 17.969)"/><path d="M275.65 223.08h16.545a35.685 35.685 0 0 1 16.841 22.258c3.264 14.838-24.706 34.425-24.706 34.425s12.316-20.774 12.316-27.377c0-6.603-19.735-18.993-21-21.367a16.1 16.1 0 0 1 0-7.938z" transform="matrix(.324 0 0 .324 -82.496 36.438)"/><path d="M284.588 223.08h16.545a35.464 35.464 0 0 1 16.767 22.258c3.339 14.838-24.632 34.425-24.632 34.425s12.242-20.774 12.242-27.377c0-6.603-19.661-18.993-20.922-21.367a14.842 14.842 0 0 1 0-7.939z" transform="matrix(.324 0 0 .324 -63.998 36.438)"/></g><g fill="#fb9900"><path transform="matrix(.324 0 0 .324 1.533 17.969)" d="M360.785 231.561h-8.606s-4.749-17.361-6.455-17.361h-53.641c-1.632 0-6.38 17.361-6.38 17.361h-8.603s-3.264 1.261-1.929 4.155c1.335 2.894 5.416 2.374 8.161 2.448l-.371 1.039-5.564 3.339v33.386h16.916v-5.119h49.263v5.119h16.916v-33.535l-5.565-3.339-.371-1.039c2.745 0 7.419-.445 8.161-2.448zm-41.844 5.787h-31.606a166.78 166.78 0 0 1 6.6-19.438h50.005a166.848 166.848 0 0 1 6.6 19.438z"/><path transform="matrix(.324 0 0 .324 2.17 36.438)" d="M275.65 223.08h16.545a35.685 35.685 0 0 1 16.841 22.258c3.264 14.838-24.706 34.425-24.706 34.425s12.316-20.774 12.316-27.377c0-6.603-19.735-18.993-21-21.367a16.1 16.1 0 0 1 0-7.938z"/><path transform="matrix(.324 0 0 .324 20.668 36.438)" d="M284.588 223.08h16.545a35.464 35.464 0 0 1 16.767 22.258c3.339 14.838-24.632 34.425-24.632 34.425s12.242-20.774 12.242-27.377c0-6.603-19.661-18.993-20.922-21.367a14.842 14.842 0 0 1 0-7.939z"/></g><path d="M38.971-229.16v-10.8a3.756 3.756 0 0 0-.545-1.878 42.293 42.293 0 0 0-3.926-5.522c-1.127-1.446-2.292-2.855-3.456-4.244l-.188-.226a.657.657 0 0 0-1.071 0 1.127 1.127 0 0 0 0 1.334c.845.995 1.69 2.01 2.517 3.043l.77.939v6.273a1.425 1.425 0 0 0 .093.638c0 .113.15.226.207.338l.62.939 2.066 3.174 1.409 2.16v10.5a2.953 2.953 0 0 1 0 .432 2.184 2.184 0 0 1-.093.376v.244l-.169.357a.693.693 0 0 1-.093.207c0 .093-.131.207 0 0l-.263.357-.131.15-.338.282a1.002 1.002 0 0 0-.188.113h-.113l-.432.15h-.413a2.653 2.653 0 0 1-.545 0h-.319l-.394-.132a.77.77 0 0 1-.638.188 1.101 1.101 0 0 1-.3-.226l-.15-.188-.093-.131c0-.113-.132-.226-.188-.357a2.754 2.754 0 0 1-.131-.357v-.188a3.129 3.129 0 0 0-.169-.695c-.056-.226 0-.207 0-.319v-7.571a7.833 7.833 0 0 0-.093-1.334 4.452 4.452 0 0 0-1.597-2.742 4.809 4.809 0 0 0-3.118-.676v-16.904a1.728 1.728 0 0 0-1.502-1.878h-16.363a1.747 1.747 0 0 0-1.521 1.878v34.748h-2.198v3.062h23.667v-3.062h-2.122v-16.209h1.578l.451.15h.244s.282.15.319.263l.093.131.113.15c0 .207.188.394.263.601a.262.262 0 0 1 0 .113v8.395a7.831 7.831 0 0 0 .939 3.343 3.4 3.4 0 0 0 2.987 2.179 4.095 4.095 0 0 0 3.756-2.104 7.174 7.174 0 0 0 .864-3.531c-.094-2.064-.094-4.055-.094-5.933zm-14.031-8.64a1.146 1.146 0 0 1-.996 1.258h-12.396a1.146 1.146 0 0 1-.995-1.258v-10.687a1.146 1.146 0 0 1 .995-1.258h12.396a1.146 1.146 0 0 1 .995 1.258zm5.823 7.269zm6.424 9.053v-.112l-.093.075zm.282-18.67v4.17l-2.591-3.982-.3-.451v-4.189c.657.864 1.296 1.747 1.878 2.686l.376.563v.132a2.038 2.038 0 0 1 .15.282c0 .15.169.3.244.451l.093.207v.113z" fill="#f6f6f6" transform="translate(0 382.979)"/><path d="M81.304-229.16v-10.8a3.756 3.756 0 0 0-.545-1.878 42.293 42.293 0 0 0-3.926-5.522c-1.127-1.446-2.292-2.855-3.456-4.244l-.188-.226a.657.657 0 0 0-1.071 0 1.127 1.127 0 0 0 0 1.334c.845.995 1.69 2.01 2.517 3.043l.77.939v6.273a1.425 1.425 0 0 0 .093.638c0 .113.15.226.207.338l.62.939 2.066 3.174 1.409 2.16v10.5a2.953 2.953 0 0 1 0 .432 2.184 2.184 0 0 1-.093.376v.244l-.169.357a.693.693 0 0 1-.093.207c0 .093-.131.207 0 0l-.263.357-.131.15-.338.282a1.002 1.002 0 0 0-.188.113h-.113l-.432.15h-.413a2.653 2.653 0 0 1-.545 0h-.319l-.394-.132a.77.77 0 0 1-.638.188 1.101 1.101 0 0 1-.3-.226l-.15-.188-.093-.131c0-.113-.132-.226-.188-.357a2.754 2.754 0 0 1-.131-.357v-.188a3.129 3.129 0 0 0-.169-.695c-.056-.226 0-.207 0-.319v-7.571a7.833 7.833 0 0 0-.093-1.334 4.452 4.452 0 0 0-1.597-2.742 4.809 4.809 0 0 0-3.118-.676v-16.904a1.728 1.728 0 0 0-1.502-1.878h-16.363a1.747 1.747 0 0 0-1.521 1.878v34.748h-2.198v3.062h23.667v-3.062h-2.122v-16.209h1.578l.451.15h.244s.282.15.319.263l.093.131.113.15c0 .207.188.394.263.601a.262.262 0 0 1 0 .113v8.395a7.831 7.831 0 0 0 .939 3.343 3.4 3.4 0 0 0 2.987 2.179 4.095 4.095 0 0 0 3.756-2.104 7.174 7.174 0 0 0 .864-3.531c-.094-2.064-.094-4.055-.094-5.933zm-14.031-8.64a1.146 1.146 0 0 1-.996 1.258h-12.396a1.146 1.146 0 0 1-.995-1.258v-10.687a1.146 1.146 0 0 1 .995-1.258h12.396a1.146 1.146 0 0 1 .995 1.258zm5.823 7.269zm6.424 9.053v-.112l-.093.075zm.282-18.67v4.17l-2.591-3.982-.3-.451v-4.189c.657.864 1.296 1.747 1.878 2.686l.376.563v.132a2.038 2.038 0 0 1 .15.282c0 .15.169.3.244.451l.093.207v.113z" fill="#fb9900" transform="translate(0 382.979)"/><path d="M123.638-229.16v-10.8a3.756 3.756 0 0 0-.545-1.878 42.293 42.293 0 0 0-3.925-5.522c-1.127-1.446-2.292-2.855-3.456-4.244l-.188-.226a.657.657 0 0 0-1.071 0 1.127 1.127 0 0 0 0 1.334c.845.995 1.69 2.01 2.517 3.043l.77.939v6.273a1.425 1.425 0 0 0 .093.638c0 .113.15.226.207.338l.62.939 2.066 3.174 1.409 2.16v10.5a2.953 2.953 0 0 1 0 .432 2.184 2.184 0 0 1-.093.376v.244l-.169.357a.693.693 0 0 1-.093.207c0 .093-.131.207 0 0l-.263.357-.131.15-.338.282a1.002 1.002 0 0 0-.188.113h-.113l-.432.15h-.413a2.653 2.653 0 0 1-.545 0h-.319l-.394-.132a.77.77 0 0 1-.638.188 1.101 1.101 0 0 1-.3-.226l-.15-.188-.093-.131c0-.113-.132-.226-.188-.357a2.754 2.754 0 0 1-.131-.357v-.188a3.129 3.129 0 0 0-.169-.695c-.056-.226 0-.207 0-.319v-7.571a7.833 7.833 0 0 0-.093-1.334 4.452 4.452 0 0 0-1.597-2.742 4.809 4.809 0 0 0-3.118-.676v-16.904a1.728 1.728 0 0 0-1.502-1.878h-16.363a1.747 1.747 0 0 0-1.521 1.878v34.748h-2.198v3.062h23.667v-3.062h-2.122v-16.209h1.578l.451.15h.244s.282.15.319.263l.093.131.113.15c0 .207.188.394.263.601a.262.262 0 0 1 0 .113v8.395a7.831 7.831 0 0 0 .939 3.343 3.4 3.4 0 0 0 2.987 2.179 4.095 4.095 0 0 0 3.756-2.104 7.174 7.174 0 0 0 .864-3.531c-.094-2.064-.094-4.055-.094-5.933zm-14.031-8.64a1.146 1.146 0 0 1-.996 1.258h-12.396a1.146 1.146 0 0 1-.995-1.258v-10.687a1.146 1.146 0 0 1 .995-1.258h12.396a1.146 1.146 0 0 1 .995 1.258zm5.823 7.269zm6.424 9.053v-.112l-.093.075zm.282-18.67v4.17l-2.591-3.982-.3-.451v-4.189c.657.864 1.296 1.747 1.878 2.686l.376.563v.132a2.038 2.038 0 0 1 .15.282c0 .15.169.3.244.451l.093.207v.113z" fill="#ed1c24" transform="translate(0 382.979)"/><g fill="rgba(255, 255, 255, 0.6)"><path d="M24.007 178.975c-3.141 2.167-4.117 5.807-4.117 12.568 0 6.761.975 10.401 4.117 12.568s18.267-3.64 18.267-12.568c0-8.927-15.038-14.713-18.267-12.568z"/><path transform="matrix(.302 0 0 .302 -63.089 133.133)" d="M272.9 224.832h-50.87a3.659 3.659 0 1 0 0 7.175h50.87a3.659 3.659 0 1 0 0-7.175z"/><path transform="matrix(.302 0 0 .302 -62.96 128.602)" d="M265.227 222.33h-44.2c-4.377 0-4.448 7.175 0 7.175h44.2a3.659 3.659 0 0 0 0-7.175z"/><path transform="matrix(.302 0 0 .302 -62.96 124.033)" d="M265.227 219.88h-44.2c-4.377 0-4.448 7.175 0 7.175h44.2a3.659 3.659 0 0 0 0-7.175z"/><path transform="matrix(.302 0 0 .302 -62.96 119.483)" d="M265.227 217.44h-44.2c-4.377 0-4.448 7.175 0 7.175h44.2a3.659 3.659 0 0 0 0-7.175z"/><path transform="matrix(.302 0 0 .302 -63.089 114.914)" d="M272.9 215.062h-50.87a3.659 3.659 0 1 0 0 7.175h50.87a3.659 3.659 0 1 0 0-7.175z"/></g><g fill="#40b6ff"><path d="M108.674 178.975c-3.141 2.167-4.117 5.807-4.117 12.568 0 6.761.975 10.401 4.117 12.568s18.267-3.64 18.267-12.568c0-8.927-15.038-14.713-18.267-12.568z"/><path transform="matrix(.302 0 0 .302 21.578 133.133)" d="M272.9 224.832h-50.87a3.659 3.659 0 1 0 0 7.175h50.87a3.659 3.659 0 1 0 0-7.175z"/><path transform="matrix(.302 0 0 .302 21.707 128.602)" d="M265.227 222.33h-44.2c-4.377 0-4.448 7.175 0 7.175h44.2a3.659 3.659 0 0 0 0-7.175z"/><path transform="matrix(.302 0 0 .302 21.707 124.033)" d="M265.227 219.88h-44.2c-4.377 0-4.448 7.175 0 7.175h44.2a3.659 3.659 0 0 0 0-7.175z"/><path transform="matrix(.302 0 0 .302 21.707 119.483)" d="M265.227 217.44h-44.2c-4.377 0-4.448 7.175 0 7.175h44.2a3.659 3.659 0 0 0 0-7.175z"/><path transform="matrix(.302 0 0 .302 21.578 114.914)" d="M272.9 215.062h-50.87a3.659 3.659 0 1 0 0 7.175h50.87a3.659 3.659 0 1 0 0-7.175z"/></g><g fill="rgba(255, 255, 255, 0.6)"><path d="M40.928 246.518v-20.562h.312v-3.391h-3.222v-3.127h-3.126v3.126h-5.171v-4.353h-14.43v4.353h-5.146v-3.127h-3.199v3.126h-3.319v3.391h.337v20.634c-1.082.289-1.323 2.839-1.323 2.839h39.633s-.168-2.622-1.347-2.911zm-.433-.242h-36.074v-20.176h36.074zm-23.135-25.877h10.149v2.092h-10.149z"/><path d="M22.531 244.786l-.457-5.459 2.91-.577-3.319-6.925.866 5.557-2.862.938z"/><path d="M9.64 234.998h1.323v-3.054h2.934v-1.275h-2.934v-3.03h-1.323v3.03h-2.886v1.275h2.886z"/><path d="M30.322 230.477h7.792v1.275h-7.792z"/></g><g fill="#fb9900"><path d="M83.261 246.518v-20.562h.312v-3.391h-3.222v-3.127h-3.126v3.126h-5.171v-4.353h-14.43v4.353h-5.146v-3.127h-3.199v3.126h-3.319v3.391h.337v20.634c-1.082.289-1.323 2.839-1.323 2.839h39.633s-.168-2.622-1.347-2.911zm-.433-.242h-36.074v-20.176h36.074zm-23.135-25.877h10.149v2.092h-10.149z"/><path d="M64.864 244.786l-.457-5.459 2.91-.577-3.319-6.925.866 5.557-2.862.938z"/><path d="M51.973 234.998h1.323v-3.054h2.934v-1.275h-2.934v-3.03h-1.323v3.03h-2.886v1.275h2.886z"/><path d="M72.655 230.477h7.792v1.275h-7.792z"/></g><g fill="#ed1c24"><path d="M125.594 246.518v-20.562h.312v-3.391h-3.222v-3.127h-3.126v3.126h-5.171v-4.353h-14.43v4.353h-5.146v-3.127h-3.199v3.126h-3.319v3.391h.337v20.634c-1.082.289-1.323 2.839-1.323 2.839h39.633s-.168-2.622-1.347-2.911zm-.433-.242h-36.074v-20.176h36.074zm-23.135-25.877h10.149v2.092h-10.149z"/><path d="M107.197 244.786l-.457-5.459 2.91-.577-3.319-6.925.866 5.557-2.862.938z"/><path d="M94.306 234.998h1.323v-3.054h2.934v-1.275h-2.934v-3.03h-1.323v3.03h-2.886v1.275h2.886z"/><path d="M114.988 230.477h7.792v1.275h-7.792z"/></g><g fill="rgba(255, 255, 255, 0.6)"><path transform="matrix(.307 0 0 .307 -107.061 209.699)" d="M458.062 221a27.781 27.781 0 0 0-24.689 14.9h-68.385l-7.648 8.323 13.5 14.566 7.311-7.648 6.917 7.648 7.311-7.648 4.668 4.837 4.33-4.5 4.162 4.5 5.286-4.837 8.942 7.648h12.2a28.119 28.119 0 1 0 26.095-37.789zm9.842 34.98a7.48 7.48 0 1 1 7.014-3.526 7.479 7.479 0 0 1-7.014 3.526z"/><path transform="matrix(.307 0 0 .307 -99.978 193.077)" d="M393.542 271.714a31.212 31.212 0 1 1 31.212-31.214 31.212 31.212 0 0 1-31.212 31.212zm0-56.856a25.7 25.7 0 1 0 25.644 25.642 25.7 25.7 0 0 0-25.644-25.643z"/><path transform="matrix(.307 0 0 .307 -94.47 196.392)" d="M385.332 221.213a9.561 9.561 0 1 0-13.554 8.661v16.478h8.829v-16.872a9.506 9.506 0 0 0 4.725-8.267z"/></g><g fill="#ed1c24"><path transform="matrix(.307 0 0 .307 -22.394 209.699)" d="M458.062 221a27.781 27.781 0 0 0-24.689 14.9h-68.385l-7.648 8.323 13.5 14.566 7.311-7.648 6.917 7.648 7.311-7.648 4.668 4.837 4.33-4.5 4.162 4.5 5.286-4.837 8.942 7.648h12.2a28.119 28.119 0 1 0 26.095-37.789zm9.842 34.98a7.48 7.48 0 1 1 7.014-3.526 7.479 7.479 0 0 1-7.014 3.526z"/><path transform="matrix(.307 0 0 .307 -15.311 193.077)" d="M393.542 271.714a31.212 31.212 0 1 1 31.212-31.214 31.212 31.212 0 0 1-31.212 31.212zm0-56.856a25.7 25.7 0 1 0 25.644 25.642 25.7 25.7 0 0 0-25.644-25.643z"/><path transform="matrix(.307 0 0 .307 -9.803 196.392)" d="M385.332 221.213a9.561 9.561 0 1 0-13.554 8.661v16.478h8.829v-16.872a9.506 9.506 0 0 0 4.725-8.267z"/></g><g fill="rgba(255, 255, 255, 0.6)"><path transform="matrix(.307 0 0 .307 -134.875 245.503)" d="M550.8 264.627a11.647 11.647 0 0 1-11.461-9.842c-15.011.436-32.639.623-48.086.5a11.648 11.648 0 0 1-22.922-.5c-18.686-.809-19.371-2.118-19.994-3.862-1.993-5.668 3.675-17.191 11.648-20.43a127.25 127.25 0 0 1 27.656-3.675c20.305-15.758 21.426-15.758 22.359-15.758h31.767c6.228 0 13.89 10.527 17.066 15.26h8.967a5.17 5.17 0 0 1 4.672 3.488 30.71 30.71 0 0 1-1.06 21.925c-.747.872-1.557 1.433-8.782 1.993a11.71 11.71 0 0 1-11.83 10.901zm-6.229-15.011v3.364a6.665 6.665 0 1 0 13.267 0 6.875 6.875 0 0 0 0-1.121l-.5-2.8h2.8a58.176 58.176 0 0 0 8.035-.81 28.212 28.212 0 0 0-.311-16.755h-11.4l-.747-1.121c-4.485-6.789-11.025-14.139-13.641-14.139h-31.138c-2.18 1.308-11.9 8.533-20.43 15.2l-.623.5h-.81a122.592 122.592 0 0 0-26.721 3.363 17.315 17.315 0 0 0-9.031 13.267 120.068 120.068 0 0 0 17.939 1.433h1.993v3.052a6.665 6.665 0 1 0 13.267 0v-2.749h2.616c16.755 0 36.438 0 52.633-.5z"/><path transform="matrix(.307 0 0 .307 -106.648 245.447)" d="M468.51 225.2h-.934l-2.055-2.678c.374-.374 9.032-9.655 10.4-10.963 1.368-1.308 6.229 0 9.218 1.806l-2.117 3.364a17.631 17.631 0 0 0-4.547-2.056z"/></g><g fill="#fb9900"><path transform="matrix(.307 0 0 .307 -50.208 245.503)" d="M550.8 264.627a11.647 11.647 0 0 1-11.461-9.842c-15.011.436-32.639.623-48.086.5a11.648 11.648 0 0 1-22.922-.5c-18.686-.809-19.371-2.118-19.994-3.862-1.993-5.668 3.675-17.191 11.648-20.43a127.25 127.25 0 0 1 27.656-3.675c20.305-15.758 21.426-15.758 22.359-15.758h31.767c6.228 0 13.89 10.527 17.066 15.26h8.967a5.17 5.17 0 0 1 4.672 3.488 30.71 30.71 0 0 1-1.06 21.925c-.747.872-1.557 1.433-8.782 1.993a11.71 11.71 0 0 1-11.83 10.901zm-6.229-15.011v3.364a6.665 6.665 0 1 0 13.267 0 6.875 6.875 0 0 0 0-1.121l-.5-2.8h2.8a58.176 58.176 0 0 0 8.035-.81 28.212 28.212 0 0 0-.311-16.755h-11.4l-.747-1.121c-4.485-6.789-11.025-14.139-13.641-14.139h-31.138c-2.18 1.308-11.9 8.533-20.43 15.2l-.623.5h-.81a122.592 122.592 0 0 0-26.721 3.363 17.315 17.315 0 0 0-9.031 13.267 120.068 120.068 0 0 0 17.939 1.433h1.993v3.052a6.665 6.665 0 1 0 13.267 0v-2.749h2.616c16.755 0 36.438 0 52.633-.5z"/><path transform="matrix(.307 0 0 .307 -21.981 245.447)" d="M468.51 225.2h-.934l-2.055-2.678c.374-.374 9.032-9.655 10.4-10.963 1.368-1.308 6.229 0 9.218 1.806l-2.117 3.364a17.631 17.631 0 0 0-4.547-2.056z"/></g><g fill="rgba(255, 255, 255, 0.6)"><path transform="matrix(.325 0 0 .325 -95.062 277.613)" d="M315.06 288.445l76.26-73.585 4.32 4.252-59.869 57.538 1.44 3.7h.617a70.219 70.219 0 0 1 29.351-5.075 123.441 123.441 0 0 1 41.147 9.875l-1.92 5.486a99.918 99.918 0 0 0-39.158-9.67c-18.722 0-44.37 11.178-48.005 12.893z"/><path transform="matrix(.325 0 0 .325 -88.836 282.449)" d="M367.775 219.732c-.754-.686-2.125-1.715-2.949-2.332l-46.5 44.782.48 1.3a74.133 74.133 0 0 1 29.214-4.869 103.972 103.972 0 0 1 30.381 5.692 18.524 18.524 0 0 0 .411-9.464q-4.938-16.8-9.944-33.466a3.838 3.838 0 0 0-1.093-1.643z"/><path transform="matrix(.325 0 0 .325 -89.731 281.459)" d="M378.963 273.8l1.714-5.006a103.409 103.409 0 0 0-29.9-5.555 71.529 71.529 0 0 0-29.283 5.006l-.754.412-1.509-3.84 46.976-45.193-5.487-2.743-42.86 41.146 2.675 16.116h-.343v.411a107.191 107.191 0 0 1 30.792-6.1 88.412 88.412 0 0 1 27.98 5.349z"/><path transform="matrix(.325 0 0 .325 -88.855 296.27)" d="M348.494 224.66a103.489 103.489 0 0 0-30.174 6.04c2.88 7.2 5.691 14.47 8.641 21.6 1.028 2.537 2.469 4.869 3.7 7.269a2.057 2.057 0 0 0 1.989 1.1h8.778c-3.5-9.4-6.858-18.585-10.355-27.431a44.233 44.233 0 0 1 31.546 0l-10.355 27.431h9.4a1.577 1.577 0 0 0 1.1-.754 26.008 26.008 0 0 0 2.4-4.252c3.017-6.858 5.966-13.716 8.846-21.123.617-1.577 1.166-3.154 1.783-4.8a88.053 88.053 0 0 0-27.299-5.08z"/><path transform="matrix(.325 0 0 .325 -89.712 272.369)" d="M359.291 244.026a13.032 13.032 0 0 1-5.006-4.8 33.864 33.864 0 0 0 3.772-4.046 17.077 17.077 0 0 0 2.194-15.293 11.042 11.042 0 0 0-10.012-7.749 11.247 11.247 0 0 0-10.9 6.172 17.35 17.35 0 0 0 3.086 18.722 16.455 16.455 0 0 0 2.537 2.057 15.641 15.641 0 0 1-2.4 2.743c-2.194 1.577-4.457 2.881-6.858 4.321s-4.869 2.949-7.27 4.526a3.293 3.293 0 0 0-1.165 1.783c-3.155 10.424-6.241 20.574-9.4 31.34z"/></g><g fill="#ed1c24"><path transform="matrix(.325 0 0 .325 -10.395 277.613)" d="M315.06 288.445l76.26-73.585 4.32 4.252-59.869 57.538 1.44 3.7h.617a70.219 70.219 0 0 1 29.351-5.075 123.441 123.441 0 0 1 41.147 9.875l-1.92 5.486a99.918 99.918 0 0 0-39.158-9.67c-18.722 0-44.37 11.178-48.005 12.893z"/><path transform="matrix(.325 0 0 .325 -4.169 282.449)" d="M367.775 219.732c-.754-.686-2.125-1.715-2.949-2.332l-46.5 44.782.48 1.3a74.133 74.133 0 0 1 29.214-4.869 103.972 103.972 0 0 1 30.381 5.692 18.524 18.524 0 0 0 .411-9.464q-4.938-16.8-9.944-33.466a3.838 3.838 0 0 0-1.093-1.643z"/><path transform="matrix(.325 0 0 .325 -5.064 281.459)" d="M378.963 273.8l1.714-5.006a103.409 103.409 0 0 0-29.9-5.555 71.529 71.529 0 0 0-29.283 5.006l-.754.412-1.509-3.84 46.976-45.193-5.487-2.743-42.86 41.146 2.675 16.116h-.343v.411a107.191 107.191 0 0 1 30.792-6.1 88.412 88.412 0 0 1 27.98 5.349z"/><path transform="matrix(.325 0 0 .325 -4.188 296.27)" d="M348.494 224.66a103.489 103.489 0 0 0-30.174 6.04c2.88 7.2 5.691 14.47 8.641 21.6 1.028 2.537 2.469 4.869 3.7 7.269a2.057 2.057 0 0 0 1.989 1.1h8.778c-3.5-9.4-6.858-18.585-10.355-27.431a44.233 44.233 0 0 1 31.546 0l-10.355 27.431h9.4a1.577 1.577 0 0 0 1.1-.754 26.008 26.008 0 0 0 2.4-4.252c3.017-6.858 5.966-13.716 8.846-21.123.617-1.577 1.166-3.154 1.783-4.8a88.053 88.053 0 0 0-27.299-5.08z"/><path transform="matrix(.325 0 0 .325 -5.045 272.369)" d="M359.291 244.026a13.032 13.032 0 0 1-5.006-4.8 33.864 33.864 0 0 0 3.772-4.046 17.077 17.077 0 0 0 2.194-15.293 11.042 11.042 0 0 0-10.012-7.749 11.247 11.247 0 0 0-10.9 6.172 17.35 17.35 0 0 0 3.086 18.722 16.455 16.455 0 0 0 2.537 2.057 15.641 15.641 0 0 1-2.4 2.743c-2.194 1.577-4.457 2.881-6.858 4.321s-4.869 2.949-7.27 4.526a3.293 3.293 0 0 0-1.165 1.783c-3.155 10.424-6.241 20.574-9.4 31.34z"/></g><g fill="rgba(255, 255, 255, 0.6)"><path transform="matrix(.306 0 0 .306 -.992 333.825)" d="M135.092 245.417c-5.783-.677-6.461-7.711-4.272-12.869a17.607 17.607 0 0 1 6.3-7.138 8.078 8.078 0 0 0 .469 3.387c.677 2.24 3.178 2.761 3.96 6.878s-.882 10.368-6.457 9.742z"/><path transform="matrix(.306 0 0 .306 -30.113 328.363)" d="M227.5 226.693c-3.23-.782-46.528 14.12-46.528 14.12l-3.856-4.325h-16.937v-6.982h6.982v-7.451h-20.841v7.451h6.513v6.982h-13.233v-4.9l-27.772-10.418-4.585 17.142c-.365 1.355-.417 4.9 2.4 5.94 2.817 1.04 13.234 4.846 17.454 6.409a6.669 6.669 0 0 1 4.325 5.888v10.42a5.836 5.836 0 0 0 6.357 5.732h50.431c4.168 0 8.545-5.21 8.545-5.21l22.039-29.646a6.721 6.721 0 0 1 5.888-1.667 12.032 12.032 0 0 1 5.731 3.543l5.21-5.575s-4.845-6.672-8.123-7.453zm-96.338 18.132l-16.1-6.1a1.615 1.615 0 0 1-.781-1.876l1.355-5.679a1.2 1.2 0 0 1 1.511-.469l14.016 5.21v8.91z"/></g><g fill="#fb9900"><path transform="matrix(.306 0 0 .306 41.342 333.825)" d="M135.092 245.417c-5.783-.677-6.461-7.711-4.272-12.869a17.607 17.607 0 0 1 6.3-7.138 8.078 8.078 0 0 0 .469 3.387c.677 2.24 3.178 2.761 3.96 6.878s-.882 10.368-6.457 9.742z"/><path transform="matrix(.306 0 0 .306 12.221 328.363)" d="M227.5 226.693c-3.23-.782-46.528 14.12-46.528 14.12l-3.856-4.325h-16.937v-6.982h6.982v-7.451h-20.841v7.451h6.513v6.982h-13.233v-4.9l-27.772-10.418-4.585 17.142c-.365 1.355-.417 4.9 2.4 5.94 2.817 1.04 13.234 4.846 17.454 6.409a6.669 6.669 0 0 1 4.325 5.888v10.42a5.836 5.836 0 0 0 6.357 5.732h50.431c4.168 0 8.545-5.21 8.545-5.21l22.039-29.646a6.721 6.721 0 0 1 5.888-1.667 12.032 12.032 0 0 1 5.731 3.543l5.21-5.575s-4.845-6.672-8.123-7.453zm-96.338 18.132l-16.1-6.1a1.615 1.615 0 0 1-.781-1.876l1.355-5.679a1.2 1.2 0 0 1 1.511-.469l14.016 5.21v8.91z"/></g><g fill="#ed1c24"><path transform="matrix(.306 0 0 .306 83.675 333.825)" d="M135.092 245.417c-5.783-.677-6.461-7.711-4.272-12.869a17.607 17.607 0 0 1 6.3-7.138 8.078 8.078 0 0 0 .469 3.387c.677 2.24 3.178 2.761 3.96 6.878s-.882 10.368-6.457 9.742z"/><path transform="matrix(.306 0 0 .306 54.554 328.363)" d="M227.5 226.693c-3.23-.782-46.528 14.12-46.528 14.12l-3.856-4.325h-16.937v-6.982h6.982v-7.451h-20.841v7.451h6.513v6.982h-13.233v-4.9l-27.772-10.418-4.585 17.142c-.365 1.355-.417 4.9 2.4 5.94 2.817 1.04 13.234 4.846 17.454 6.409a6.669 6.669 0 0 1 4.325 5.888v10.42a5.836 5.836 0 0 0 6.357 5.732h50.431c4.168 0 8.545-5.21 8.545-5.21l22.039-29.646a6.721 6.721 0 0 1 5.888-1.667 12.032 12.032 0 0 1 5.731 3.543l5.21-5.575s-4.845-6.672-8.123-7.453zm-96.338 18.132l-16.1-6.1a1.615 1.615 0 0 1-.781-1.876l1.355-5.679a1.2 1.2 0 0 1 1.511-.469l14.016 5.21v8.91z"/></g><g fill="rgba(255, 255, 255, 0.6)"><path transform="matrix(.323 0 0 .323 -101.943 379.653)" d="M410.362 260.768c-1.414 0-1.414 0-2.057-1.093a9.773 9.773 0 0 0-9.837-5.143 14.144 14.144 0 0 0-10.415 3.986 7.328 7.328 0 0 1-5.915 2.25c-2.636 0-2.893-.386-3.536-1.479a8.936 8.936 0 0 0-8.937-4.758 10.607 10.607 0 0 0-9.386 4.372c-1.029 1.286-1.543 1.864-4.243 1.864a7.843 7.843 0 0 1-6.429-2.443 12.857 12.857 0 0 0-9.258-3.793v7.136a6.43 6.43 0 0 1 4.629 2.057 14.916 14.916 0 0 0 10.8 4.179 11.187 11.187 0 0 0 9.772-4.436 3.728 3.728 0 0 1 3.857-1.8c2.057 0 2.186 0 2.829 1.286a9.579 9.579 0 0 0 9.644 4.951 14.465 14.465 0 0 0 10.543-3.986 7.137 7.137 0 0 1 5.787-2.25c2.7 0 3.022.45 3.729 1.672a8.229 8.229 0 0 0 8.161 4.56 22.694 22.694 0 0 0 10.736-3.279 19.933 19.933 0 0 1 9.451-2.957v-7.136a26.551 26.551 0 0 0-12.858 3.729 16.838 16.838 0 0 1-7.067 2.511z"/><path transform="matrix(.323 0 0 .323 -101.943 349.792)" d="M417.884 333.929a16.842 16.842 0 0 1-7.522 2.507c-1.415 0-1.415 0-2.058-1.093a9.773 9.773 0 0 0-9.837-5.143 16.644 16.644 0 0 0-4.243.514 11.508 11.508 0 0 0-4.115-13.951v-21.663h24.044v-7.522h-24.043v-10.031h24.044v-7.458h-24.044v-10.089h24.044v-7.522h-24.044v-15.048h-12.857v79.334a11.379 11.379 0 0 0-5.079 9.515 11.959 11.959 0 0 0 .836 4.308 12.851 12.851 0 0 0-3.343-.386 10.608 10.608 0 0 0-9.386 4.372c-1.029 1.285-1.543 1.864-4.243 1.864a7.844 7.844 0 0 1-6.429-2.443 12.859 12.859 0 0 0-9.258-3.793v7.329a6.044 6.044 0 0 1 4.629 2.121 15.172 15.172 0 0 0 10.8 4.115 11.187 11.187 0 0 0 9.772-4.436 3.728 3.728 0 0 1 3.857-1.8c2.057 0 2.186 0 2.829 1.286a9.579 9.579 0 0 0 9.644 4.95 14.465 14.465 0 0 0 10.544-3.986 7.138 7.138 0 0 1 5.786-2.25c2.7 0 3.022.45 3.729 1.671a8.229 8.229 0 0 0 8.165 4.565 22.7 22.7 0 0 0 10.736-3.279 19.932 19.932 0 0 1 9.451-2.958v-7.136a26.553 26.553 0 0 0-12.408 3.536z"/></g><g fill="#fb9900"><path transform="matrix(.323 0 0 .323 -59.609 379.653)" d="M410.362 260.768c-1.414 0-1.414 0-2.057-1.093a9.773 9.773 0 0 0-9.837-5.143 14.144 14.144 0 0 0-10.415 3.986 7.328 7.328 0 0 1-5.915 2.25c-2.636 0-2.893-.386-3.536-1.479a8.936 8.936 0 0 0-8.937-4.758 10.607 10.607 0 0 0-9.386 4.372c-1.029 1.286-1.543 1.864-4.243 1.864a7.843 7.843 0 0 1-6.429-2.443 12.857 12.857 0 0 0-9.258-3.793v7.136a6.43 6.43 0 0 1 4.629 2.057 14.916 14.916 0 0 0 10.8 4.179 11.187 11.187 0 0 0 9.772-4.436 3.728 3.728 0 0 1 3.857-1.8c2.057 0 2.186 0 2.829 1.286a9.579 9.579 0 0 0 9.644 4.951 14.465 14.465 0 0 0 10.543-3.986 7.137 7.137 0 0 1 5.787-2.25c2.7 0 3.022.45 3.729 1.672a8.229 8.229 0 0 0 8.161 4.56 22.694 22.694 0 0 0 10.736-3.279 19.933 19.933 0 0 1 9.451-2.957v-7.136a26.551 26.551 0 0 0-12.858 3.729 16.838 16.838 0 0 1-7.067 2.511z"/><path transform="matrix(.323 0 0 .323 -59.609 349.792)" d="M417.884 333.929a16.842 16.842 0 0 1-7.522 2.507c-1.415 0-1.415 0-2.058-1.093a9.773 9.773 0 0 0-9.837-5.143 16.644 16.644 0 0 0-4.243.514 11.508 11.508 0 0 0-4.115-13.951v-21.663h24.044v-7.522h-24.043v-10.031h24.044v-7.458h-24.044v-10.089h24.044v-7.522h-24.044v-15.048h-12.857v79.334a11.379 11.379 0 0 0-5.079 9.515 11.959 11.959 0 0 0 .836 4.308 12.851 12.851 0 0 0-3.343-.386 10.608 10.608 0 0 0-9.386 4.372c-1.029 1.285-1.543 1.864-4.243 1.864a7.844 7.844 0 0 1-6.429-2.443 12.859 12.859 0 0 0-9.258-3.793v7.329a6.044 6.044 0 0 1 4.629 2.121 15.172 15.172 0 0 0 10.8 4.115 11.187 11.187 0 0 0 9.772-4.436 3.728 3.728 0 0 1 3.857-1.8c2.057 0 2.186 0 2.829 1.286a9.579 9.579 0 0 0 9.644 4.95 14.465 14.465 0 0 0 10.544-3.986 7.138 7.138 0 0 1 5.786-2.25c2.7 0 3.022.45 3.729 1.671a8.229 8.229 0 0 0 8.165 4.565 22.7 22.7 0 0 0 10.736-3.279 19.932 19.932 0 0 1 9.451-2.958v-7.136a26.553 26.553 0 0 0-12.408 3.536z"/></g><g fill="#ed1c24"><path transform="matrix(.323 0 0 .323 -17.276 379.653)" d="M410.362 260.768c-1.414 0-1.414 0-2.057-1.093a9.773 9.773 0 0 0-9.837-5.143 14.144 14.144 0 0 0-10.415 3.986 7.328 7.328 0 0 1-5.915 2.25c-2.636 0-2.893-.386-3.536-1.479a8.936 8.936 0 0 0-8.937-4.758 10.607 10.607 0 0 0-9.386 4.372c-1.029 1.286-1.543 1.864-4.243 1.864a7.843 7.843 0 0 1-6.429-2.443 12.857 12.857 0 0 0-9.258-3.793v7.136a6.43 6.43 0 0 1 4.629 2.057 14.916 14.916 0 0 0 10.8 4.179 11.187 11.187 0 0 0 9.772-4.436 3.728 3.728 0 0 1 3.857-1.8c2.057 0 2.186 0 2.829 1.286a9.579 9.579 0 0 0 9.644 4.951 14.465 14.465 0 0 0 10.543-3.986 7.137 7.137 0 0 1 5.787-2.25c2.7 0 3.022.45 3.729 1.672a8.229 8.229 0 0 0 8.161 4.56 22.694 22.694 0 0 0 10.736-3.279 19.933 19.933 0 0 1 9.451-2.957v-7.136a26.551 26.551 0 0 0-12.858 3.729 16.838 16.838 0 0 1-7.067 2.511z"/><path transform="matrix(.323 0 0 .323 -17.276 349.792)" d="M417.884 333.929a16.842 16.842 0 0 1-7.522 2.507c-1.415 0-1.415 0-2.058-1.093a9.773 9.773 0 0 0-9.837-5.143 16.644 16.644 0 0 0-4.243.514 11.508 11.508 0 0 0-4.115-13.951v-21.663h24.044v-7.522h-24.043v-10.031h24.044v-7.458h-24.044v-10.089h24.044v-7.522h-24.044v-15.048h-12.857v79.334a11.379 11.379 0 0 0-5.079 9.515 11.959 11.959 0 0 0 .836 4.308 12.851 12.851 0 0 0-3.343-.386 10.608 10.608 0 0 0-9.386 4.372c-1.029 1.285-1.543 1.864-4.243 1.864a7.844 7.844 0 0 1-6.429-2.443 12.859 12.859 0 0 0-9.258-3.793v7.329a6.044 6.044 0 0 1 4.629 2.121 15.172 15.172 0 0 0 10.8 4.115 11.187 11.187 0 0 0 9.772-4.436 3.728 3.728 0 0 1 3.857-1.8c2.057 0 2.186 0 2.829 1.286a9.579 9.579 0 0 0 9.644 4.95 14.465 14.465 0 0 0 10.544-3.986 7.138 7.138 0 0 1 5.786-2.25c2.7 0 3.022.45 3.729 1.671a8.229 8.229 0 0 0 8.165 4.565 22.7 22.7 0 0 0 10.736-3.279 19.932 19.932 0 0 1 9.451-2.958v-7.136a26.553 26.553 0 0 0-12.408 3.536z"/></g><path d="M41.774 103.1a1.603 1.603 0 0 0-1.484-1.108h-2.81c-1.009-1.484-3.502-4.828-5.422-4.828h-9.893c-.297 0-.633 0-5.936 4.115a50.543 50.543 0 0 0-6.352-4.709 8.173 8.173 0 0 0-4.116 0l.276 1.226a7.085 7.085 0 0 1 3.364 0 44.693 44.693 0 0 1 5.797 4.314 38.625 38.625 0 0 0-8.726 1.167c-2.533 1.029-4.333 4.67-3.7 6.45.198.554.337.97 6.332 1.207a3.679 3.679 0 0 0 7.242.158c4.887 0 10.447 0 15.196-.139a3.679 3.679 0 0 0 7.301-.337c2.275-.178 2.553-.356 2.79-.633a9.756 9.756 0 0 0 .138-6.886zm-1.345 5.738a20.362 20.362 0 0 1-2.553.276h-.871l.158.871a2.155 2.155 0 0 1 0 .356 2.097 2.097 0 1 1-4.195 0v-1.068h-.889c-5.125.158-11.338.218-16.641.158h-.733v.871a2.097 2.097 0 1 1-4.195 0v-.97h-.811a34.725 34.725 0 0 1-5.679-.455 5.52 5.52 0 0 1 2.849-4.195 39.831 39.831 0 0 1 8.449-1.068h.257l.198-.158c2.711-2.097 5.758-4.412 6.469-4.808h9.795c.851 0 2.909 2.315 4.333 4.472l.237.356h3.601a9.162 9.162 0 0 1 .219 5.363z" fill="rgba(255, 255, 255, 0.6)" transform="translate(0 382.979)"/><path d="M126.441 103.1a1.603 1.603 0 0 0-1.484-1.108h-2.81c-1.009-1.484-3.502-4.828-5.422-4.828h-9.893c-.297 0-.633 0-5.936 4.115a50.543 50.543 0 0 0-6.352-4.709 8.173 8.173 0 0 0-4.116 0l.276 1.226a7.085 7.085 0 0 1 3.364 0 44.693 44.693 0 0 1 5.797 4.314 38.625 38.625 0 0 0-8.726 1.167c-2.533 1.029-4.333 4.67-3.7 6.45.198.554.337.97 6.332 1.207a3.679 3.679 0 0 0 7.242.158c4.887 0 10.447 0 15.196-.139a3.679 3.679 0 0 0 7.301-.337c2.275-.178 2.553-.356 2.79-.633a9.756 9.756 0 0 0 .138-6.886zm-1.345 5.738a20.362 20.362 0 0 1-2.553.276h-.871l.158.871a2.155 2.155 0 0 1 0 .356 2.097 2.097 0 1 1-4.195 0v-1.068h-.889c-5.125.158-11.338.218-16.641.158h-.733v.871a2.097 2.097 0 1 1-4.195 0v-.97h-.811a34.725 34.725 0 0 1-5.679-.455 5.52 5.52 0 0 1 2.849-4.195 39.831 39.831 0 0 1 8.449-1.068h.257l.198-.158c2.711-2.097 5.758-4.412 6.469-4.808h9.795c.851 0 2.909 2.315 4.333 4.472l.237.356h3.601a9.162 9.162 0 0 1 .219 5.363z" fill="#fb9900" transform="translate(0 382.979)"/><g fill="rgba(255, 255, 255, 0.6)"><path transform="matrix(.325 0 0 .325 -83.926 441.49)" d="M354.531 223.865h-5.654s-3.1-11.375-4.173-11.375h-35.204c-1.077 0-4.173 11.375-4.173 11.375h-5.654s-2.154.808-1.279 2.692c.875 1.884 3.567 1.615 5.317 1.683v.673l-3.635 2.154v21.942h11.105v-3.433h32.24v3.433h11.105v-21.943l-3.635-2.154v-.673c1.75 0 4.712-.337 5.317-1.683zm-27.393 3.835h-20.73a105.864 105.864 0 0 1 4.308-12.788h32.778a105.833 105.833 0 0 1 4.306 12.788z"/><path transform="matrix(.325 0 0 .325 -83.476 453.447)" d="M298.631 218.91h10.836a23.152 23.152 0 0 1 11.038 14.471c2.154 9.826-16.153 22.547-16.153 22.547a72.291 72.291 0 0 0 8.009-17.971c0-4.308-12.922-12.452-13.461-14a10.1 10.1 0 0 1-.269-5.047z"/><path transform="matrix(.325 0 0 .325 -71.5 453.447)" d="M305.061 218.91h10.839a23.155 23.155 0 0 1 11.038 14.471c2.154 9.826-16.153 22.547-16.153 22.547a72.289 72.289 0 0 0 8.009-17.971c0-4.308-12.923-12.452-13.461-14a10.1 10.1 0 0 1-.272-5.047z"/><path transform="matrix(.325 0 0 .325 -87.724 465.05)" d="M330.077 242.91a26.3 26.3 0 0 1-1.279 8.211 16.229 16.229 0 0 1-3.231 5.923 15.277 15.277 0 0 1-5.384 3.769 21.133 21.133 0 0 1-7.471 1.279 21.682 21.682 0 0 1-7.269-1.144 12.049 12.049 0 0 1-5.115-3.3 13.459 13.459 0 0 1-3.1-5.654 26.925 26.925 0 0 1-1.077-8.144 25.373 25.373 0 0 1 1.144-7.808 16.494 16.494 0 0 1 3.23-5.855 15.278 15.278 0 0 1 5.384-3.769 21.137 21.137 0 0 1 7.471-1.279 22.759 22.759 0 0 1 7.134 1.077 12.519 12.519 0 0 1 5.183 3.3 14.4 14.4 0 0 1 3.163 5.653 28.114 28.114 0 0 1 1.212 7.74zm-7.606.4a29.386 29.386 0 0 0-.471-5.11 10.772 10.772 0 0 0-1.481-3.9 7.329 7.329 0 0 0-2.827-2.558 9.7 9.7 0 0 0-4.442-.875 9.017 9.017 0 0 0-4.443 1.009 8.345 8.345 0 0 0-2.894 2.625 10.9 10.9 0 0 0-1.548 3.971 21.563 21.563 0 0 0-.471 4.711 24.977 24.977 0 0 0 .471 5.25 11.1 11.1 0 0 0 1.481 3.971 6.729 6.729 0 0 0 2.827 2.558 10.428 10.428 0 0 0 4.442.875 9.013 9.013 0 0 0 4.442-1.01 7.944 7.944 0 0 0 2.894-2.692 12.243 12.243 0 0 0 1.549-3.976 28.069 28.069 0 0 0 .471-4.845z"/><path transform="matrix(.325 0 0 .325 -76.413 465.054)" d="M321.318 228.494a9.01 9.01 0 0 1 0 1.414q.022.437 0 .875v.471a.605.605 0 0 1-.471 0h-11.647v9.557h11.375a.878.878 0 0 1 .336.471 1.683 1.683 0 0 1 0 .875 7.772 7.772 0 0 1 0 1.414 6.74 6.74 0 0 1 0 1.346 2.155 2.155 0 0 1 0 .942.875.875 0 0 1-.336.471.472.472 0 0 1-.4 0h-10.975v13.461a.947.947 0 0 1 0 .471 1.347 1.347 0 0 1-.606.4 4.373 4.373 0 0 1-1.144 0h-3.5a3.845 3.845 0 0 1-1.077 0s-.538 0-.606-.4a.606.606 0 0 1 0-.471v-32.307a2.219 2.219 0 0 1 .606-1.75 2.086 2.086 0 0 1 1.548-.539h16.759a.539.539 0 0 1 .471 0v1.414a9.04 9.04 0 0 1-.333 1.885z"/><path transform="matrix(.325 0 0 .325 -69.442 465.056)" d="M325.783 228.487v1.413a2.69 2.69 0 0 1 0 .875 1.213 1.213 0 0 1-.337.471h-12.518v9.554h11.372l.336.471c.015.291.015.584 0 .875a8.633 8.633 0 0 1 0 1.413 7.724 7.724 0 0 1 0 1.346v.942s0 .4-.336.471a.538.538 0 0 1-.471 0h-10.9v13.461a.607.607 0 0 1 0 .471l-.606.4a3.832 3.832 0 0 1-1.077 0h-3.5a4.386 4.386 0 0 1-1.144 0 1.346 1.346 0 0 1-.606-.4.947.947 0 0 1 0-.471v-32.302a2.222 2.222 0 0 1 .606-1.75 2.087 2.087 0 0 1 1.548-.538h16.759a.471.471 0 0 1 .4 0 .875.875 0 0 1 .336.471 3.173 3.173 0 0 1 0 .942c.071.875.138 1.346.138 1.885z"/></g><g fill="#ed1c24"><path transform="matrix(.325 0 0 .325 .74 441.49)" d="M354.531 223.865h-5.654s-3.1-11.375-4.173-11.375h-35.204c-1.077 0-4.173 11.375-4.173 11.375h-5.654s-2.154.808-1.279 2.692c.875 1.884 3.567 1.615 5.317 1.683v.673l-3.635 2.154v21.942h11.105v-3.433h32.24v3.433h11.105v-21.943l-3.635-2.154v-.673c1.75 0 4.712-.337 5.317-1.683zm-27.393 3.835h-20.73a105.864 105.864 0 0 1 4.308-12.788h32.778a105.833 105.833 0 0 1 4.306 12.788z"/><path transform="matrix(.325 0 0 .325 1.19 453.447)" d="M298.631 218.91h10.836a23.152 23.152 0 0 1 11.038 14.471c2.154 9.826-16.153 22.547-16.153 22.547a72.291 72.291 0 0 0 8.009-17.971c0-4.308-12.922-12.452-13.461-14a10.1 10.1 0 0 1-.269-5.047z"/><path transform="matrix(.325 0 0 .325 13.166 453.447)" d="M305.061 218.91h10.839a23.155 23.155 0 0 1 11.038 14.471c2.154 9.826-16.153 22.547-16.153 22.547a72.289 72.289 0 0 0 8.009-17.971c0-4.308-12.923-12.452-13.461-14a10.1 10.1 0 0 1-.272-5.047z"/><path transform="matrix(.325 0 0 .325 -3.058 465.05)" d="M330.077 242.91a26.3 26.3 0 0 1-1.279 8.211 16.229 16.229 0 0 1-3.231 5.923 15.277 15.277 0 0 1-5.384 3.769 21.133 21.133 0 0 1-7.471 1.279 21.682 21.682 0 0 1-7.269-1.144 12.049 12.049 0 0 1-5.115-3.3 13.459 13.459 0 0 1-3.1-5.654 26.925 26.925 0 0 1-1.077-8.144 25.373 25.373 0 0 1 1.144-7.808 16.494 16.494 0 0 1 3.23-5.855 15.278 15.278 0 0 1 5.384-3.769 21.137 21.137 0 0 1 7.471-1.279 22.759 22.759 0 0 1 7.134 1.077 12.519 12.519 0 0 1 5.183 3.3 14.4 14.4 0 0 1 3.163 5.653 28.114 28.114 0 0 1 1.212 7.74zm-7.606.4a29.386 29.386 0 0 0-.471-5.11 10.772 10.772 0 0 0-1.481-3.9 7.329 7.329 0 0 0-2.827-2.558 9.7 9.7 0 0 0-4.442-.875 9.017 9.017 0 0 0-4.443 1.009 8.345 8.345 0 0 0-2.894 2.625 10.9 10.9 0 0 0-1.548 3.971 21.563 21.563 0 0 0-.471 4.711 24.977 24.977 0 0 0 .471 5.25 11.1 11.1 0 0 0 1.481 3.971 6.729 6.729 0 0 0 2.827 2.558 10.428 10.428 0 0 0 4.442.875 9.013 9.013 0 0 0 4.442-1.01 7.944 7.944 0 0 0 2.894-2.692 12.243 12.243 0 0 0 1.549-3.976 28.069 28.069 0 0 0 .471-4.845z"/><path transform="matrix(.325 0 0 .325 8.253 465.054)" d="M321.318 228.494a9.01 9.01 0 0 1 0 1.414q.022.437 0 .875v.471a.605.605 0 0 1-.471 0h-11.647v9.557h11.375a.878.878 0 0 1 .336.471 1.683 1.683 0 0 1 0 .875 7.772 7.772 0 0 1 0 1.414 6.74 6.74 0 0 1 0 1.346 2.155 2.155 0 0 1 0 .942.875.875 0 0 1-.336.471.472.472 0 0 1-.4 0h-10.975v13.461a.947.947 0 0 1 0 .471 1.347 1.347 0 0 1-.606.4 4.373 4.373 0 0 1-1.144 0h-3.5a3.845 3.845 0 0 1-1.077 0s-.538 0-.606-.4a.606.606 0 0 1 0-.471v-32.307a2.219 2.219 0 0 1 .606-1.75 2.086 2.086 0 0 1 1.548-.539h16.759a.539.539 0 0 1 .471 0v1.414a9.04 9.04 0 0 1-.333 1.885z"/><path transform="matrix(.325 0 0 .325 15.224 465.056)" d="M325.783 228.487v1.413a2.69 2.69 0 0 1 0 .875 1.213 1.213 0 0 1-.337.471h-12.518v9.554h11.372l.336.471c.015.291.015.584 0 .875a8.633 8.633 0 0 1 0 1.413 7.724 7.724 0 0 1 0 1.346v.942s0 .4-.336.471a.538.538 0 0 1-.471 0h-10.9v13.461a.607.607 0 0 1 0 .471l-.606.4a3.832 3.832 0 0 1-1.077 0h-3.5a4.386 4.386 0 0 1-1.144 0 1.346 1.346 0 0 1-.606-.4.947.947 0 0 1 0-.471v-32.302a2.222 2.222 0 0 1 .606-1.75 2.087 2.087 0 0 1 1.548-.538h16.759a.471.471 0 0 1 .4 0 .875.875 0 0 1 .336.471 3.173 3.173 0 0 1 0 .942c.071.875.138 1.346.138 1.885z"/></g><path d="M36.395 183.352v3.946h-1.678v-4.389h-3.135l-3.246-3.227h-5.33v-.129h3.246c.183-.111 1.162-.664.959-1.494-.203-.83-1.143-1.457-6.861-1.457-6.123 0-7.174.775-7.377 1.531a1.18 1.18 0 0 0 .609 1.291h3.209v.24h-4.426l-2.582 3.246h-3.798v6.141h-1.845a34.503 34.503 0 0 0-.406-6.344c-.498 0-1.088 2.582-1.088 4.831 0 2.249.498 2.029.498 2.988 0 .959-.498.406-.498 2.674s.442 5.533 1.088 5.533a23.056 23.056 0 0 0 .442-6.4h1.844v6.363h6.916l5.182 4.389h16.598v-5.532h1.678v4.371h5.938v-18.571zm-22.278-4.923c.221-.183 1.272-.719 6.344-.719 4.464 0 5.533.443 5.772.627l-.275.221h-4.022v1.217h-4.131v-1.328zm26.668 21.965h-2.692v-4.391h-4.923v5.533h-14.494l-5.182-4.389h-5.887v-12.466h2.951l2.599-3.246h14.514l3.229 3.246h2.195v4.316h4.999v-3.966h2.691z" fill="rgba(255, 255, 255, 0.6)" transform="translate(0 382.979)"/><path d="M78.729 183.352v3.946h-1.678v-4.389h-3.135l-3.246-3.227h-5.33v-.129h3.246c.183-.111 1.162-.664.959-1.494-.203-.83-1.143-1.457-6.861-1.457-6.123 0-7.174.775-7.377 1.531a1.18 1.18 0 0 0 .609 1.291h3.209v.24h-4.426l-2.582 3.246h-3.798v6.141h-1.845a34.503 34.503 0 0 0-.406-6.344c-.498 0-1.088 2.582-1.088 4.831 0 2.249.498 2.029.498 2.988 0 .959-.498.406-.498 2.674s.442 5.533 1.088 5.533a23.056 23.056 0 0 0 .442-6.4h1.844v6.363h6.916l5.182 4.389h16.598v-5.532h1.678v4.371h5.938v-18.571zm-22.278-4.923c.221-.183 1.272-.719 6.344-.719 4.464 0 5.533.443 5.772.627l-.275.221h-4.022v1.217h-4.131v-1.328zm26.668 21.965h-2.692v-4.391h-4.923v5.533h-14.494l-5.182-4.389h-5.887v-12.466h2.951l2.599-3.246h14.514l3.229 3.246h2.195v4.316h4.999v-3.966h2.691z" fill="#fb9900" transform="translate(0 382.979)"/><path d="M121.062 183.352v3.946h-1.678v-4.389h-3.135l-3.246-3.227h-5.33v-.129h3.246c.183-.111 1.162-.664.959-1.494-.203-.83-1.143-1.457-6.861-1.457-6.123 0-7.174.775-7.377 1.531a1.18 1.18 0 0 0 .609 1.291h3.209v.24h-4.426l-2.582 3.246h-3.798v6.141h-1.845a34.503 34.503 0 0 0-.406-6.344c-.498 0-1.088 2.582-1.088 4.831 0 2.249.498 2.029.498 2.988 0 .959-.498.406-.498 2.674s.442 5.533 1.088 5.533a23.056 23.056 0 0 0 .442-6.4h1.844v6.363h6.916l5.182 4.389h16.598v-5.532h1.678v4.371h5.938v-18.571zm-22.278-4.923c.221-.183 1.272-.719 6.344-.719 4.464 0 5.533.443 5.772.627l-.275.221h-4.022v1.217h-4.131v-1.328zm26.668 21.965h-2.692v-4.391h-4.923v5.533h-14.494l-5.182-4.389h-5.887v-12.466h2.951l2.599-3.246h14.514l3.229 3.246h2.195v4.316h4.999v-3.966h2.691z" fill="#ed1c24" transform="translate(0 382.979)"/><g fill="rgba(255, 255, 255, 0.6)"><path transform="matrix(.307 0 0 .307 -43.812 529.055)" d="M215.692 326.924a47.072 47.072 0 1 1 47.072-47.072 47.072 47.072 0 0 1-47.072 47.072zm0-84.819a37.747 37.747 0 1 0 37.747 37.747 37.747 37.747 0 0 0-37.747-37.752z"/><path transform="matrix(.307 0 0 .307 -21.642 530.061)" d="M190.72 234.333l-.843-.843-5.617 5.617.9.9a50.948 50.948 0 0 1 0 73.023l-.9.843 5.617 5.617.843-.843a59.149 59.149 0 0 0 0-84.258z"/><path transform="matrix(.307 0 0 .307 -48.176 530.103)" d="M189.688 239.137l-5.617-5.617-.9.843a59.149 59.149 0 0 0 0 84.258l.9.843 5.617-5.617-.9-.843a50.948 50.948 0 0 1 0-73.023z"/><path d="M19.56 618.298h-1.466l-.586-1.518h-2.656l-.553 1.518h-1.431l2.604-6.656h1.414zm-2.483-2.638l-.914-2.466-.897 2.466z"/><path transform="matrix(.307 0 0 .307 -33.677 538.176)" d="M175.77 239.3h8.65a22.482 22.482 0 0 1 3.876 0 5.168 5.168 0 0 1 2.247.843 5.954 5.954 0 0 1 1.685 1.857 4.722 4.722 0 0 1 .674 2.528 5 5 0 0 1-.842 2.809 5.618 5.618 0 0 1-2.247 1.91 5.26 5.26 0 0 1 4.157 5.224 6.4 6.4 0 0 1-.73 2.865 5.616 5.616 0 0 1-1.854 2.247 6.686 6.686 0 0 1-2.977 1.067h-12.639zm4.381 3.6v5h6.066a2.529 2.529 0 0 0 1.741-.786 2.134 2.134 0 0 0 .674-1.685 2.472 2.472 0 0 0-.562-1.629 2.639 2.639 0 0 0-1.685-.786h-6.235zm0 8.65v5.617h4.049a29.035 29.035 0 0 0 3.033 0 2.808 2.808 0 0 0 1.573-.9 2.752 2.752 0 0 0 .618-1.854 2.694 2.694 0 0 0-.505-1.629 2.528 2.528 0 0 0-1.348-1.011 17.753 17.753 0 0 0-3.876-.281z"/><path transform="matrix(.307 0 0 .307 -28.432 538.064)" d="M179.47 254.269l4.269-.393a4.886 4.886 0 0 0 1.517 3.146 4.774 4.774 0 0 0 3.2 1.011 4.83 4.83 0 0 0 3.2-.9 2.585 2.585 0 0 0 1.067-2.078 2.023 2.023 0 0 0-.449-1.292 3.427 3.427 0 0 0-1.573-.955l-3.539-.955a12.073 12.073 0 0 1-4.719-2.247 5.823 5.823 0 0 1-1.067-7.471 6.29 6.29 0 0 1 2.753-2.191 10.724 10.724 0 0 1 4.269-.786 9.155 9.155 0 0 1 6.123 1.8 6.235 6.235 0 0 1 2.191 4.774h-4.381a3.539 3.539 0 0 0-1.236-2.415 4.214 4.214 0 0 0-2.752-.73 4.717 4.717 0 0 0-2.977.786 1.516 1.516 0 0 0-.73 1.348 1.572 1.572 0 0 0 .674 1.292 12.02 12.02 0 0 0 4.044 1.461 19.765 19.765 0 0 1 4.719 1.573 6.068 6.068 0 0 1 2.415 2.191 6.685 6.685 0 0 1 .842 3.483 6.46 6.46 0 0 1-1.011 3.483 6.347 6.347 0 0 1-2.977 2.415 12.524 12.524 0 0 1-4.719.786 9.157 9.157 0 0 1-6.291-1.91 7.92 7.92 0 0 1-2.865-5.224z"/></g><g fill="#ed1c24"><path transform="matrix(.307 0 0 .307 40.854 529.055)" d="M215.692 326.924a47.072 47.072 0 1 1 47.072-47.072 47.072 47.072 0 0 1-47.072 47.072zm0-84.819a37.747 37.747 0 1 0 37.747 37.747 37.747 37.747 0 0 0-37.747-37.752z"/><path transform="matrix(.307 0 0 .307 63.024 530.061)" d="M190.72 234.333l-.843-.843-5.617 5.617.9.9a50.948 50.948 0 0 1 0 73.023l-.9.843 5.617 5.617.843-.843a59.149 59.149 0 0 0 0-84.258z"/><path transform="matrix(.307 0 0 .307 36.49 530.103)" d="M189.688 239.137l-5.617-5.617-.9.843a59.149 59.149 0 0 0 0 84.258l.9.843 5.617-5.617-.9-.843a50.948 50.948 0 0 1 0-73.023z"/><path d="M104.226 618.298h-1.466l-.586-1.518h-2.656l-.553 1.518h-1.431l2.604-6.656h1.414zm-2.483-2.638l-.914-2.466-.897 2.466z"/><path transform="matrix(.307 0 0 .307 50.989 538.176)" d="M175.77 239.3h8.65a22.482 22.482 0 0 1 3.876 0 5.168 5.168 0 0 1 2.247.843 5.954 5.954 0 0 1 1.685 1.857 4.722 4.722 0 0 1 .674 2.528 5 5 0 0 1-.842 2.809 5.618 5.618 0 0 1-2.247 1.91 5.26 5.26 0 0 1 4.157 5.224 6.4 6.4 0 0 1-.73 2.865 5.616 5.616 0 0 1-1.854 2.247 6.686 6.686 0 0 1-2.977 1.067h-12.639zm4.381 3.6v5h6.066a2.529 2.529 0 0 0 1.741-.786 2.134 2.134 0 0 0 .674-1.685 2.472 2.472 0 0 0-.562-1.629 2.639 2.639 0 0 0-1.685-.786h-6.235zm0 8.65v5.617h4.049a29.035 29.035 0 0 0 3.033 0 2.808 2.808 0 0 0 1.573-.9 2.752 2.752 0 0 0 .618-1.854 2.694 2.694 0 0 0-.505-1.629 2.528 2.528 0 0 0-1.348-1.011 17.753 17.753 0 0 0-3.876-.281z"/><path transform="matrix(.307 0 0 .307 56.234 538.064)" d="M179.47 254.269l4.269-.393a4.886 4.886 0 0 0 1.517 3.146 4.774 4.774 0 0 0 3.2 1.011 4.83 4.83 0 0 0 3.2-.9 2.585 2.585 0 0 0 1.067-2.078 2.023 2.023 0 0 0-.449-1.292 3.427 3.427 0 0 0-1.573-.955l-3.539-.955a12.073 12.073 0 0 1-4.719-2.247 5.823 5.823 0 0 1-1.067-7.471 6.29 6.29 0 0 1 2.753-2.191 10.724 10.724 0 0 1 4.269-.786 9.155 9.155 0 0 1 6.123 1.8 6.235 6.235 0 0 1 2.191 4.774h-4.381a3.539 3.539 0 0 0-1.236-2.415 4.214 4.214 0 0 0-2.752-.73 4.717 4.717 0 0 0-2.977.786 1.516 1.516 0 0 0-.73 1.348 1.572 1.572 0 0 0 .674 1.292 12.02 12.02 0 0 0 4.044 1.461 19.765 19.765 0 0 1 4.719 1.573 6.068 6.068 0 0 1 2.415 2.191 6.685 6.685 0 0 1 .842 3.483 6.46 6.46 0 0 1-1.011 3.483 6.347 6.347 0 0 1-2.977 2.415 12.524 12.524 0 0 1-4.719.786 9.157 9.157 0 0 1-6.291-1.91 7.92 7.92 0 0 1-2.865-5.224z"/></g><g fill="rgba(255, 255, 255, 0.6)"><path transform="matrix(.31 0 0 .31 -112.884 566.753)" d="M449.627 354.553h-18.793a19.41 19.41 0 0 1-19.354-19.353v-33.154h8.02l-.783-16.046-7.237-16.493v-23.507a19.41 19.41 0 0 1 19.354-19.354h18.793a19.41 19.41 0 0 1 19.354 19.354v23.449l-6.844 16.551-.786 16.044h7.63v33.156a19.41 19.41 0 0 1-19.353 19.354zm-32.593-46.953v27.6a13.8 13.8 0 0 0 13.8 13.8h18.793a13.8 13.8 0 0 0 13.8-13.8v-27.6h-7.854l1.066-22.832 6.788-16.381v-22.439a13.8 13.8 0 0 0-13.8-13.8h-18.793a13.8 13.8 0 0 0-13.8 13.8v22.439l7.18 16.381 1.066 22.888z"/><path d="M29.579 646.806c-.73-.904-2.8-1.2-5.983-1.2s-5.217.296-6 1.2l1.6 5.425h8.782s2.331-4.503 1.601-5.425z"/><path d="M28.64 670.265c-.609.922-2.348 1.2-5.043 1.2-2.695 0-4.452-.279-5.061-1.2l1.339-5.425h7.426s1.965 4.521 1.339 5.425z"/><path d="M5.838 657.701l8.56-5.989.787 1.125-8.56 5.989z"/><path d="M29.747 650.813l.783-1.127 8.569 5.96-.783 1.127z"/></g><g fill="#ed1c24"><path transform="matrix(.31 0 0 .31 -28.218 566.753)" d="M449.627 354.553h-18.793a19.41 19.41 0 0 1-19.354-19.353v-33.154h8.02l-.783-16.046-7.237-16.493v-23.507a19.41 19.41 0 0 1 19.354-19.354h18.793a19.41 19.41 0 0 1 19.354 19.354v23.449l-6.844 16.551-.786 16.044h7.63v33.156a19.41 19.41 0 0 1-19.353 19.354zm-32.593-46.953v27.6a13.8 13.8 0 0 0 13.8 13.8h18.793a13.8 13.8 0 0 0 13.8-13.8v-27.6h-7.854l1.066-22.832 6.788-16.381v-22.439a13.8 13.8 0 0 0-13.8-13.8h-18.793a13.8 13.8 0 0 0-13.8 13.8v22.439l7.18 16.381 1.066 22.888z"/><path d="M114.245 646.806c-.73-.904-2.8-1.2-5.983-1.2s-5.217.296-6 1.2l1.6 5.425h8.782s2.331-4.503 1.601-5.425z"/><path d="M113.306 670.265c-.609.922-2.348 1.2-5.043 1.2-2.695 0-4.452-.279-5.061-1.2l1.339-5.425h7.426s1.965 4.521 1.339 5.425z"/><path d="M90.504 657.701l8.56-5.989.787 1.125-8.56 5.989z"/><path d="M114.413 650.813l.783-1.127 8.569 5.96-.783 1.127z"/></g></g></svg>